<svg width="22" height="22" viewBox="0 0 22 22" fill="none" xmlns="http://www.w3.org/2000/svg">
<path d="M11 1.83334C12.4587 1.83334 13.8576 2.41281 14.8891 3.44426C15.9205 4.47571 16.5 5.87465 16.5 7.33334V8.25001H20.1666V10.0833H19.0969L18.403 18.4094C18.3839 18.6385 18.2795 18.852 18.1104 19.0077C17.9413 19.1634 17.7198 19.2499 17.49 19.25H4.50998C4.28012 19.2499 4.0587 19.1634 3.8896 19.0077C3.7205 18.852 3.61606 18.6385 3.59698 18.4094L2.90215 10.0833H1.83331V8.25001H5.49998V7.33334C5.49998 5.87465 6.07944 4.47571 7.11089 3.44426C8.14234 2.41281 9.54129 1.83334 11 1.83334ZM11.9166 11.9167H10.0833V15.5833H11.9166V11.9167ZM8.24998 11.9167H6.41665V15.5833H8.24998V11.9167ZM15.5833 11.9167H13.75V15.5833H15.5833V11.9167ZM11 3.66668C10.0593 3.66668 9.15452 4.02824 8.4729 4.67659C7.79128 5.32494 7.38493 6.21046 7.3379 7.15001L7.33331 7.33334V8.25001H14.6666V7.33334C14.6666 6.39262 14.3051 5.48788 13.6567 4.80627C13.0084 4.12465 12.1229 3.7183 11.1833 3.67126L11 3.66668Z" fill="black"/>
</svg>
